<svg xmlns="http://www.w3.org/2000/svg" xmlns:xlink="http://www.w3.org/1999/xlink" width="187" height="58.936" viewBox="0 0 187 58.936">
  <defs>
    <clipPath id="clip-path">
      <rect id="Rectangle_14011" data-name="Rectangle 14011" width="11.225" height="8.372" fill="#fff"/>
    </clipPath>
    <clipPath id="clip-path-2">
      <rect id="Rectangle_14012" data-name="Rectangle 14012" width="187" height="58.936" fill="#fff"/>
    </clipPath>
    <clipPath id="clip-path-3">
      <rect id="Rectangle_14013" data-name="Rectangle 14013" width="1.264" height="3.742" fill="#fff"/>
    </clipPath>
    <clipPath id="clip-path-4">
      <rect id="Rectangle_14014" data-name="Rectangle 14014" width="3.602" height="3.134" fill="#fff"/>
    </clipPath>
    <clipPath id="clip-path-5">
      <rect id="Rectangle_14015" data-name="Rectangle 14015" width="3.133" height="2.151" fill="#fff"/>
    </clipPath>
    <clipPath id="clip-path-6">
      <rect id="Rectangle_14016" data-name="Rectangle 14016" width="1.871" height="6.36" fill="#fff"/>
    </clipPath>
    <clipPath id="clip-path-8">
      <rect id="Rectangle_14018" data-name="Rectangle 14018" width="1.263" height="2.618" fill="#fff"/>
    </clipPath>
    <clipPath id="clip-path-9">
      <rect id="Rectangle_14019" data-name="Rectangle 14019" width="2.759" height="1.871" fill="#fff"/>
    </clipPath>
    <clipPath id="clip-path-10">
      <rect id="Rectangle_14020" data-name="Rectangle 14020" width="2.105" height="1.498" fill="#fff"/>
    </clipPath>
    <clipPath id="clip-path-11">
      <rect id="Rectangle_14021" data-name="Rectangle 14021" width="1.871" height="4.864" fill="#fff"/>
    </clipPath>
    <clipPath id="clip-path-12">
      <path id="Path_74072" data-name="Path 74072" d="M42.34,26.137a.421.421,0,0,0-.372.227v.389a.421.421,0,0,0,.181.179h.385a.42.42,0,0,0-.189-.8Z" transform="translate(-41.968 -26.137)" fill="#fff"/>
    </clipPath>
    <clipPath id="clip-path-13">
      <path id="Path_74073" data-name="Path 74073" d="M43.458,25.535a.422.422,0,0,0-.2.8h.391a.417.417,0,0,0,.179-.182v-.343A.5.5,0,0,0,43.458,25.535Z" transform="translate(-43.037 -25.535)" fill="#fff"/>
    </clipPath>
    <clipPath id="clip-path-14">
      <path id="Path_74075" data-name="Path 74075" d="M43.9,1.711l-3.2.746V4.331l.13.557.567,2.436h1.089l1.747-.407,2.081-.484V3.69l-.462-1.979Z" transform="translate(-40.697 -1.711)" fill="#fff"/>
    </clipPath>
    <clipPath id="clip-path-15">
      <path id="Path_74077" data-name="Path 74077" d="M38.38,3.482l-1.621.378.782,3.364h5.575l-.872-3.742Z" transform="translate(-36.759 -3.482)" fill="#fff"/>
    </clipPath>
    <clipPath id="clip-path-16">
      <rect id="Rectangle_14024" data-name="Rectangle 14024" width="3.086" height="3.134" fill="#fff"/>
    </clipPath>
    <clipPath id="clip-path-17">
      <rect id="Rectangle_14025" data-name="Rectangle 14025" width="4.35" height="3.555" fill="#fff"/>
    </clipPath>
    <clipPath id="clip-path-19">
      <rect id="Rectangle_14027" data-name="Rectangle 14027" width="2.994" height="3.134" fill="#fff"/>
    </clipPath>
  </defs>
  <g id="Group_49745" data-name="Group 49745" transform="translate(0 0)">
    <g id="Group_49702" data-name="Group 49702" transform="translate(91.249 3.657)">
      <g id="Group_49701" data-name="Group 49701" clip-path="url(#clip-path)">
        <path id="Path_74052" data-name="Path 74052" d="M75.058,4.69l-.14-1.776h-.8l-.14,2.478-1.31.889V3.8h-.046l-3.7,2.478V3.8h-.046l-3.7,2.475V8.009h.234a17.332,17.332,0,0,1,4.63.938c.749.235,1.544.515,2.293.8a23.579,23.579,0,0,1,2.2,1.029l.046.048h1.684L76.368,3.8Z" transform="translate(-65.19 -2.492)" fill="#fff"/>
      </g>
    </g>
    <g id="Group_49704" data-name="Group 49704" transform="translate(0 0)">
      <g id="Group_49703" data-name="Group 49703" clip-path="url(#clip-path-2)">
        <path id="Path_74053" data-name="Path 74053" d="M78.817,10.066a8.544,8.544,0,0,0-9.028,1.076c-6.454,4.772-10.007,12.533-16.7,17.07a11.288,11.288,0,0,1-8.884,1.967c-.046.235-.141.469-.188.7v.048c0,.046.046.094,0,.14,0,.046,0,.046-.046.094,0,.14-.046.281-.046.421a1.318,1.318,0,0,0-.1.42c0,.048-.048.094-.094.14a15.494,15.494,0,0,0,9.121-1.589c5.941-3.322,9.539-9.311,14.03-14.266a19.15,19.15,0,0,1,4.349-3.881c4.867-3.508,11.929.983,10.383,6.969a6.546,6.546,0,0,1-9.311,4.538c-.889-.328-2.1-1.871-2.945-.747a.844.844,0,0,0,.148,1.187.28.28,0,0,0,.039.028,8.742,8.742,0,0,0,7.2,1.918c7.9-1.222,9.356-13.242,2.062-16.236" transform="translate(17.484 3.695)" fill="#fff"/>
        <path id="Path_74054" data-name="Path 74054" d="M60.955,14.318c-.939-2.9-1.824-5.8-2.76-8.653-.514-1.4-1.822-.561-2.291.421-.234.421-.515.469-.981.281a12.956,12.956,0,0,0-8.186-.843c-13.236,3.18-13.7,16.838-7.343,23.993a.243.243,0,0,1,.094-.186c.048-.048.14-.094.188-.14a1.457,1.457,0,0,1,.515-.375l.42-.28.141-.14c0-.048.046-.048.094-.048a11.89,11.89,0,0,1-3.508-11.271A12.343,12.343,0,0,1,54.688,8.331a1.768,1.768,0,0,0,2.151-.326h.14c.609,1.918,1.216,3.881,1.871,5.845-2.2-.046-4.257.094-6.362-.046C56.418,9.5,39.768,8.94,41.125,20.96a8.227,8.227,0,0,0,3.6,5.705,2.022,2.022,0,0,1,.281-.328,1.773,1.773,0,0,1,.42-.607,2.707,2.707,0,0,1,.235-.374c.048-.048.094-.141.14-.188a6.5,6.5,0,0,1-2.713-3.649c-1.45-4.583,2.806-9.541,7.577-8.512-.841,1.123-2.01,2.245,0,2.713,3.086.048,6.128.048,9.215,0,.977,0,1.354-.557,1.071-1.4" transform="translate(14.158 1.968)" fill="#fff"/>
        <path id="Path_74055" data-name="Path 74055" d="M71.813,27.02a5.567,5.567,0,0,1-.421-1.123,14.727,14.727,0,0,1-12.91-5.707.933.933,0,0,0-1.474,1.145.916.916,0,0,0,.164.165,51.761,51.761,0,0,0,4.257,3.648,13.25,13.25,0,0,0,10.9,2.573,3.871,3.871,0,0,1-.514-.7" transform="translate(22.71 7.927)" fill="#fff"/>
        <path id="Path_74056" data-name="Path 74056" d="M86.673,21.118a13,13,0,0,1-2.573,6.22.045.045,0,0,0,.045.046h0c.046,0,.094,0,.094.048A6.355,6.355,0,0,1,85.317,28.6,13.374,13.374,0,0,0,88.4,16.536C85.411,2.363,68.387,2.269,61.184,12.045,57.161,16.254,54.075,21.4,49.351,24.86a6.27,6.27,0,0,1-3.742,1.31v.14a1.521,1.521,0,0,1,0,.655,9.107,9.107,0,0,1,.048,1.123,7.106,7.106,0,0,0,2.759-.561,12.878,12.878,0,0,0,4.678-3.365c4.583-4.772,8.184-10.476,13.563-14.5,8.464-6.831,21.794.323,20.016,11.455" transform="translate(18.232 2.09)" fill="#fff"/>
      </g>
    </g>
    <g id="Group_49706" data-name="Group 49706" transform="translate(55.75 27.932)">
      <g id="Group_49705" data-name="Group 49705" clip-path="url(#clip-path-3)">
        <path id="Path_74057" data-name="Path 74057" d="M40.4,23.6a.173.173,0,0,1,.14.048v-3.6c0-.046-.046-.046-.094-.094a.164.164,0,0,0-.094.048L39.8,23s.188.328.328.609c.094.046.186,0,.28,0" transform="translate(-39.843 -19.954)" fill="#fff"/>
      </g>
    </g>
    <g id="Group_49708" data-name="Group 49708" transform="translate(52.756 31.721)">
      <g id="Group_49707" data-name="Group 49707" clip-path="url(#clip-path-4)">
        <path id="Path_74058" data-name="Path 74058" d="M40.868,23.216a.239.239,0,0,1-.094-.188l-3.04,1.824c-.046,0-.046.048,0,.094,0,.048.046.048.094.048l2.76-1.123s.235-.328.374-.561l-.094-.094" transform="translate(-37.686 -22.515)" fill="#fff"/>
      </g>
    </g>
    <g id="Group_49710" data-name="Group 49710" transform="translate(56.639 32.094)">
      <g id="Group_49709" data-name="Group 49709" clip-path="url(#clip-path-5)">
        <path id="Path_74059" data-name="Path 74059" d="M43.55,24.939l-2.339-1.965a4.42,4.42,0,0,1-.607-.046.428.428,0,0,1-.14.328L43.5,25.032c.048,0,.1,0,.048-.094.048.048.048,0,0,0" transform="translate(-40.464 -22.929)" fill="#fff"/>
      </g>
    </g>
    <g id="Group_49712" data-name="Group 49712" transform="translate(55.095 32.328)">
      <g id="Group_49711" data-name="Group 49711" clip-path="url(#clip-path-6)">
        <path id="Path_74060" data-name="Path 74060" d="M40.637,23.229a.671.671,0,0,1-.281.094.178.178,0,0,1-.14-.046l-.094.186L39.8,29.309a2.022,2.022,0,0,0,1.215,0l-.374-6.08" transform="translate(-39.187 -23.042)" fill="#fff"/>
      </g>
    </g>
    <g id="Group_49714" data-name="Group 49714" transform="translate(0 0)">
      <g id="Group_49713" data-name="Group 49713" clip-path="url(#clip-path-2)">
        <path id="Path_74061" data-name="Path 74061" d="M16.6,9.93a2.731,2.731,0,0,1-.561.655,1.349,1.349,0,0,1-.8.235,1.8,1.8,0,0,1-.889-.281c-.326-.188-.7-.374-1.074-.607a9.839,9.839,0,0,0-1.405-.609,5.243,5.243,0,0,0-1.776-.28A3.673,3.673,0,0,0,7.53,9.79,2.578,2.578,0,0,0,6.688,11.8,2.036,2.036,0,0,0,7.2,13.158,4.381,4.381,0,0,0,8.56,14.1c.56.234,1.17.469,1.918.7.7.186,1.45.469,2.2.7a18.173,18.173,0,0,1,2.2.939A7.9,7.9,0,0,1,16.79,17.8a6.9,6.9,0,0,1,1.356,2.01,7.4,7.4,0,0,1,.515,2.853,9.482,9.482,0,0,1-.654,3.462,7.61,7.61,0,0,1-1.871,2.806,8.8,8.8,0,0,1-2.991,1.857,10.89,10.89,0,0,1-4.069.7,11.628,11.628,0,0,1-2.527-.28,21.459,21.459,0,0,1-2.479-.7,12.62,12.62,0,0,1-2.242-1.123A8.071,8.071,0,0,1,0,27.936l1.824-2.9a2.011,2.011,0,0,1,.561-.515,1.58,1.58,0,0,1,.8-.234,1.8,1.8,0,0,1,1.123.374c.374.235.8.469,1.263.747a10.227,10.227,0,0,0,1.59.749,5.955,5.955,0,0,0,2.153.326,3.968,3.968,0,0,0,2.618-.747,2.862,2.862,0,0,0,.941-2.339,2.233,2.233,0,0,0-.515-1.5,4.406,4.406,0,0,0-1.358-.983,14.6,14.6,0,0,0-1.87-.7c-.7-.186-1.45-.421-2.153-.655a12.161,12.161,0,0,1-2.15-.889,6.521,6.521,0,0,1-3.229-3.46,8.635,8.635,0,0,1-.514-3.13,6.987,6.987,0,0,1,.607-2.9A7.3,7.3,0,0,1,3.461,6.655,8.452,8.452,0,0,1,6.313,4.878,10.1,10.1,0,0,1,10.2,4.223a13.36,13.36,0,0,1,2.385.188,15.118,15.118,0,0,1,2.2.561,12.507,12.507,0,0,1,1.964.889A10.429,10.429,0,0,1,18.382,7.03Z" transform="translate(0 1.687)" fill="#fff"/>
        <path id="Path_74062" data-name="Path 74062" d="M39.04,4.423V31.036H32.82V19.81h-10.8V31.083h-6.22V4.423h6.22V15.555h10.8V4.423Z" transform="translate(6.314 1.768)" fill="#fff"/>
        <path id="Path_74063" data-name="Path 74063" d="M69.6,1.257a.424.424,0,0,1-.188.374.514.514,0,1,1,0-.747.379.379,0,0,1,.188.374" transform="translate(27.401 0.297)" fill="#fff"/>
        <path id="Path_74064" data-name="Path 74064" d="M68.424,1.391a.248.248,0,0,1-.094.188.363.363,0,0,1-.188.094.243.243,0,0,1-.186-.094.348.348,0,0,1-.094-.188.242.242,0,0,1,.094-.188.358.358,0,0,1,.186-.094.244.244,0,0,1,.188.094c.094.046.094.094.094.188" transform="translate(27.128 0.444)" fill="#fff"/>
        <path id="Path_74065" data-name="Path 74065" d="M71.087.617c-.048.048-.048.094-.094.14a1.13,1.13,0,0,0-1.31.421,1.108,1.108,0,0,0,.281,1.5,1.018,1.018,0,0,0,1.4-.186.987.987,0,0,0,.328.14.8.8,0,0,0,.374.747.9.9,0,0,0,1.216-.235.841.841,0,0,0-.048-1.029V2.066A1.3,1.3,0,0,0,71.146.529q-.032.044-.059.088" transform="translate(27.785 0)" fill="#fff"/>
        <path id="Path_74066" data-name="Path 74066" d="M40.52,23.267a.332.332,0,1,1-.427-.51l.006-.006a.314.314,0,0,1,.442.014.321.321,0,0,1,.028.034.354.354,0,0,1-.048.469" transform="translate(15.979 9.062)" fill="#fff"/>
        <path id="Path_74067" data-name="Path 74067" d="M43.734,21.318c-.094.094-.235.094-.281-.048-.094-.094-.046-.234,0-.326.094-.094.235-.094.281,0a.283.283,0,0,1,0,.374" transform="translate(17.348 8.345)" fill="#fff"/>
      </g>
    </g>
    <g id="Group_49716" data-name="Group 49716" transform="translate(60.099 26.577)">
      <g id="Group_49715" data-name="Group 49715" clip-path="url(#clip-path-8)">
        <path id="Path_74068" data-name="Path 74068" d="M43.645,21.545h.094V19.066c0-.046,0-.046-.046-.046s-.048,0-.048.046l-.374,2.105a2.075,2.075,0,0,0,.235.421.171.171,0,0,1,.14-.048" transform="translate(-42.802 -18.973)" fill="#fff"/>
      </g>
    </g>
    <g id="Group_49718" data-name="Group 49718" transform="translate(58.603 29.193)">
      <g id="Group_49717" data-name="Group 49717" clip-path="url(#clip-path-9)">
        <path id="Path_74069" data-name="Path 74069" d="M43.965,21.264a.173.173,0,0,1-.048-.14l-2.01,1.263s-.048.048,0,.048a.045.045,0,0,0,.045.046h0l1.871-.8a2.353,2.353,0,0,1,.281-.374.2.2,0,0,1-.14-.046" transform="translate(-41.859 -20.748)" fill="#fff"/>
      </g>
    </g>
    <g id="Group_49720" data-name="Group 49720" transform="translate(61.176 29.475)">
      <g id="Group_49719" data-name="Group 49719" clip-path="url(#clip-path-10)">
        <path id="Path_74070" data-name="Path 74070" d="M45.776,22.461,44.186,21.1a2.035,2.035,0,0,1-.421-.048.358.358,0,0,1-.094.235l2.011,1.216h.046c.1,0,.1-.048.048-.048" transform="translate(-43.719 -21.058)" fill="#fff"/>
      </g>
    </g>
    <g id="Group_49722" data-name="Group 49722" transform="translate(60.147 29.288)">
      <g id="Group_49721" data-name="Group 49721" clip-path="url(#clip-path-11)">
        <path id="Path_74071" data-name="Path 74071" d="M43.879,21.325c-.048.048-.094.048-.188.048H43.6l-.094.14-.234,4.068a.994.994,0,0,0,.841,0l-.235-4.257" transform="translate(-42.85 -20.764)" fill="#fff"/>
      </g>
    </g>
    <g id="Group_49724" data-name="Group 49724" transform="translate(58.744 36.585)">
      <g id="Group_49723" data-name="Group 49723" clip-path="url(#clip-path-12)">
        <rect id="Rectangle_14022" data-name="Rectangle 14022" width="0.795" height="0.795" transform="translate(0 0)" fill="#fff"/>
      </g>
    </g>
    <g id="Group_49726" data-name="Group 49726" transform="translate(60.241 35.743)">
      <g id="Group_49725" data-name="Group 49725" clip-path="url(#clip-path-13)">
        <rect id="Rectangle_14023" data-name="Rectangle 14023" width="0.795" height="0.795" transform="translate(0 0)" fill="#fff"/>
      </g>
    </g>
    <g id="Group_49728" data-name="Group 49728" transform="translate(56.965 2.395)">
      <g id="Group_49727" data-name="Group 49727" clip-path="url(#clip-path-14)">
        <path id="Path_74074" data-name="Path 74074" d="M44.614,2.421c-2.573.607-3.694,2.058-3.228,4.538,0,.048-.046.048-.046,0a5.217,5.217,0,0,1-.375-2.151c.188-2.2,2.76-3.086,4.724-2.853A.127.127,0,0,1,45.8,2.1a.115.115,0,0,1-.015.043c-1.169,1.45-.281,4.444-4.069,3.929a3.811,3.811,0,0,1,2.9-3.648" transform="translate(-40.591 -1.627)" fill="#fff" fill-rule="evenodd"/>
      </g>
    </g>
    <g id="Group_49730" data-name="Group 49730" transform="translate(51.453 4.874)">
      <g id="Group_49729" data-name="Group 49729" clip-path="url(#clip-path-15)">
        <path id="Path_74076" data-name="Path 74076" d="M37.978,4.492c2.573-.607,4.209.235,4.91,2.619,0,.046.048,0,.048,0a4.843,4.843,0,0,0-.609-2.105c-1.169-1.918-3.834-1.544-5.519-.469a.132.132,0,0,0-.056.178.138.138,0,0,0,.056.057c1.684.794,2.2,3.881,5.425,1.73A3.806,3.806,0,0,0,37.977,4.49" transform="translate(-36.768 -3.415)" fill="#fff" fill-rule="evenodd"/>
      </g>
    </g>
    <g id="Group_49732" data-name="Group 49732" transform="translate(99.995 31.721)">
      <g id="Group_49731" data-name="Group 49731" clip-path="url(#clip-path-16)">
        <path id="Path_74078" data-name="Path 74078" d="M71.839,23.811l1.636-.983.749,1.45c.186.8-.8,1.076-1.544,1.029Z" transform="translate(-71.278 -22.595)" fill="#fff" fill-rule="evenodd"/>
      </g>
    </g>
    <g id="Group_49734" data-name="Group 49734" transform="translate(98.778 33.591)">
      <g id="Group_49733" data-name="Group 49733" clip-path="url(#clip-path-17)">
        <path id="Path_74079" data-name="Path 74079" d="M71.812,24.265l-.841,1.544.841,1.59v-.655h.8a.869.869,0,0,0,.8-.47l.981-1.918a1.656,1.656,0,0,1-1.263.421h-1.31Z" transform="translate(-70.408 -23.891)" fill="#fff" fill-rule="evenodd"/>
      </g>
    </g>
    <g id="Group_49736" data-name="Group 49736" transform="translate(0 0)">
      <g id="Group_49735" data-name="Group 49735" clip-path="url(#clip-path-2)">
        <path id="Path_74080" data-name="Path 74080" d="M70.669,23.62l-1.636-.983.889-1.355c.56-.561,1.309.186,1.636.889Z" transform="translate(27.595 8.429)" fill="#fff" fill-rule="evenodd"/>
        <path id="Path_74081" data-name="Path 74081" d="M71.292,23.47h1.73l.939-1.544-.561.281-.374-.7a.876.876,0,0,0-.747-.515H70.169a1.735,1.735,0,0,1,.981.939l.655,1.169Z" transform="translate(28.05 8.39)" fill="#fff" fill-rule="evenodd"/>
      </g>
    </g>
    <g id="Group_49738" data-name="Group 49738" transform="translate(95.131 31.721)">
      <g id="Group_49737" data-name="Group 49737" clip-path="url(#clip-path-19)">
        <path id="Path_74082" data-name="Path 74082" d="M68.17,22.829l.515.421-.47.939c-.234.42.188.841.421.981a2.386,2.386,0,0,0,1.029.14l.655-1.123.515.281-.889-1.638Z" transform="translate(-67.89 -22.595)" fill="#fff" fill-rule="evenodd"/>
      </g>
    </g>
    <g id="Group_49740" data-name="Group 49740" transform="translate(95.131 33.591)">
      <g id="Group_49739" data-name="Group 49739" clip-path="url(#clip-path-4)">
        <path id="Path_74083" data-name="Path 74083" d="M68.2,24.365l1.075,2.058a1.173,1.173,0,0,0,1.076.328h1.169V24.834h-2.2a1.483,1.483,0,0,1-1.124-.469Z" transform="translate(-67.87 -23.851)" fill="#fff" fill-rule="evenodd"/>
      </g>
    </g>
    <g id="Group_49742" data-name="Group 49742" transform="translate(34.763 6.242)">
      <g id="Group_49744" data-name="Group 49744">
        <path id="Path_74084" data-name="Path 74084" d="M101.976,4.524V31.137H98.748a3.141,3.141,0,0,1-1.215-.235,2.438,2.438,0,0,1-.939-.8l-12.578-15.9a13.989,13.989,0,0,1,.094,1.4c0,.421.048.843.048,1.263V31.137H78.73V4.524H82a3.047,3.047,0,0,1,.7.048c.188.046.328.094.47.14a1.092,1.092,0,0,1,.42.28,4.26,4.26,0,0,1,.47.47L96.743,21.457c-.046-.515-.094-1.029-.14-1.5s-.046-.939-.046-1.358V4.524Z" transform="translate(-3.291 -4.434)" fill="#fff"/>
        <path id="Path_74085" data-name="Path 74085" d="M112.674,21.059v10.1H106.5v-10.1L96.819,4.55h5.425a1.925,1.925,0,0,1,1.263.374,3.128,3.128,0,0,1,.8.939l3.789,7.763q.491.913.841,1.684c.281.515.469,1.029.7,1.544.188-.515.374-1.029.608-1.59q.351-.771.843-1.684l3.742-7.763c.094-.141.186-.328.281-.47a3.616,3.616,0,0,1,.42-.421,3.451,3.451,0,0,1,.561-.326,1.847,1.847,0,0,1,.7-.14h5.519Z" transform="translate(3.94 -4.459)" fill="#fff"/>
        <path id="Path_74086" data-name="Path 74086" d="M131.467,20.985l-2.479-7.3a16.107,16.107,0,0,1-.56-1.636c-.188-.609-.421-1.31-.609-2.058a17.866,17.866,0,0,1-.607,2.058,16.449,16.449,0,0,1-.561,1.636l-2.431,7.249,7.249.046Zm9.822,10.15h-4.818a2.061,2.061,0,0,1-2.058-1.356l-1.59-4.63h-10.1l-1.59,4.63a2.3,2.3,0,0,1-.747.939,2,2,0,0,1-1.31.42H114.35L124.64,4.523h6.314Z" transform="translate(10.948 -4.433)" fill="#fff"/>
        <path id="Path_74087" data-name="Path 74087" d="M60.416,16.78a.939.939,0,1,1-.836.879.939.939,0,0,1,.836-.879" transform="translate(-10.946 0.466)" fill="#fff"/>
        <path id="Path_74088" data-name="Path 74088" d="M34.037,32.261V43.5h-.845a.688.688,0,0,1-.325-.071A.945.945,0,0,1,32.6,43.2L26.26,34.99c.01.141.02.28.027.416s.013.263.013.384V43.5H24.835V32.261H25.7a.8.8,0,0,1,.329.05.708.708,0,0,1,.242.235l6.362,8.215c-.017-.151-.028-.3-.035-.442s-.013-.277-.013-.4V32.263Zm7.487,6.376A2.615,2.615,0,0,0,41.4,37.8a1.885,1.885,0,0,0-.379-.665,1.726,1.726,0,0,0-.61-.438,2.06,2.06,0,0,0-.83-.157,2.033,2.033,0,0,0-1.513.556,2.684,2.684,0,0,0-.7,1.541Zm1.26,3.725a2.956,2.956,0,0,1-.649.567,3.7,3.7,0,0,1-.782.388,4.763,4.763,0,0,1-.861.22,5.626,5.626,0,0,1-.868.07,4.094,4.094,0,0,1-1.522-.279,3.365,3.365,0,0,1-1.214-.813,3.711,3.711,0,0,1-.8-1.33,5.37,5.37,0,0,1-.286-1.827,4.5,4.5,0,0,1,.259-1.545,3.7,3.7,0,0,1,.739-1.249,3.4,3.4,0,0,1,1.177-.837,3.852,3.852,0,0,1,1.565-.305,3.667,3.667,0,0,1,1.342.235,2.975,2.975,0,0,1,1.06.7,3.217,3.217,0,0,1,.7,1.118,4.225,4.225,0,0,1,.255,1.519.978.978,0,0,1-.078.469.32.32,0,0,1-.294.126h-5.21a4.244,4.244,0,0,0,.2,1.24,2.491,2.491,0,0,0,.5.879,1.972,1.972,0,0,0,.754.525,2.651,2.651,0,0,0,.978.172,2.924,2.924,0,0,0,.88-.118,4.215,4.215,0,0,0,.641-.255,5.059,5.059,0,0,0,.454-.253.636.636,0,0,1,.325-.118.334.334,0,0,1,.29.141Zm4.187,1.26a1.961,1.961,0,0,1-1.487-.54,2.125,2.125,0,0,1-.517-1.541V36.783h-.924a.324.324,0,0,1-.223-.078.316.316,0,0,1-.09-.251v-.619l1.291-.179.344-2.371a.364.364,0,0,1,.12-.207A.343.343,0,0,1,45.722,33H46.5v2.668H48.75v1.111H46.5v4.654a.956.956,0,0,0,.234.705.8.8,0,0,0,.591.234,1.069,1.069,0,0,0,.364-.055,1.39,1.39,0,0,0,.262-.122c.074-.043.136-.084.189-.12a.245.245,0,0,1,.14-.055.189.189,0,0,1,.122.035.439.439,0,0,1,.09.113l.454.735a2.615,2.615,0,0,1-.892.532,3.083,3.083,0,0,1-1.079.181M61.977,32.878a.956.956,0,0,1-.172.54L55.6,42.143h6.268V43.5h-8.45v-.658a.725.725,0,0,1,.042-.251,1.15,1.15,0,0,1,.115-.227l6.219-8.747H53.73V32.261h8.247Zm6.456,5.759a2.615,2.615,0,0,0-.13-.837,1.885,1.885,0,0,0-.379-.665,1.714,1.714,0,0,0-.61-.438,2.317,2.317,0,0,0-2.343.4,2.692,2.692,0,0,0-.7,1.541Zm1.258,3.725a2.98,2.98,0,0,1-.648.567,3.738,3.738,0,0,1-.782.388,4.823,4.823,0,0,1-.861.22,5.658,5.658,0,0,1-.869.07,4.094,4.094,0,0,1-1.522-.279,3.36,3.36,0,0,1-1.212-.813,3.714,3.714,0,0,1-.8-1.33,5.439,5.439,0,0,1-.286-1.827,4.535,4.535,0,0,1,.259-1.545,3.726,3.726,0,0,1,.739-1.249,3.407,3.407,0,0,1,1.174-.837,3.848,3.848,0,0,1,1.565-.305,3.655,3.655,0,0,1,1.341.235,2.982,2.982,0,0,1,1.061.691,3.23,3.23,0,0,1,.7,1.12,4.211,4.211,0,0,1,.253,1.517.945.945,0,0,1-.078.469.315.315,0,0,1-.288.13H64.231a4.339,4.339,0,0,0,.2,1.24,2.491,2.491,0,0,0,.5.879,1.977,1.977,0,0,0,.756.525,2.649,2.649,0,0,0,.977.172,2.924,2.924,0,0,0,.88-.118,4.158,4.158,0,0,0,.641-.255c.181-.091.332-.175.455-.253a.631.631,0,0,1,.325-.118.333.333,0,0,1,.288.141Zm3.2-5.29a3.631,3.631,0,0,1,.922-1.228,1.976,1.976,0,0,1,1.3-.447,2,2,0,0,1,.49.059,1.243,1.243,0,0,1,.4.176l-.1,1.151a.249.249,0,0,1-.259.21,1.84,1.84,0,0,1-.328-.042,2.411,2.411,0,0,0-.47-.043,1.864,1.864,0,0,0-.649.1,1.5,1.5,0,0,0-.5.314,2.18,2.18,0,0,0-.4.508,5.161,5.161,0,0,0-.321.684V43.5H71.452V35.546h.876a.485.485,0,0,1,.34.091.583.583,0,0,1,.13.316Zm7.385-1.65a4.2,4.2,0,0,1,1.585.286,3.284,3.284,0,0,1,1.205.826,3.638,3.638,0,0,1,.763,1.286,5.54,5.54,0,0,1,0,3.392,3.62,3.62,0,0,1-.763,1.292,3.321,3.321,0,0,1-1.205.817,4.558,4.558,0,0,1-3.176,0,3.378,3.378,0,0,1-1.209-.817,3.624,3.624,0,0,1-.77-1.292,5.457,5.457,0,0,1,0-3.392,3.676,3.676,0,0,1,.77-1.286,3.33,3.33,0,0,1,1.209-.822,4.213,4.213,0,0,1,1.592-.29m0,6.995a1.945,1.945,0,0,0,1.682-.759,3.554,3.554,0,0,0,.556-2.136,3.586,3.586,0,0,0-.556-2.14,1.947,1.947,0,0,0-1.682-.763,1.971,1.971,0,0,0-1.7.763,3.567,3.567,0,0,0-.56,2.14,3.535,3.535,0,0,0,.56,2.136,1.974,1.974,0,0,0,1.7.759m17.628-1.33a.323.323,0,0,1,.244.109l.656.719a4.675,4.675,0,0,1-1.678,1.26,5.771,5.771,0,0,1-2.382.447,5.567,5.567,0,0,1-2.21-.423,4.886,4.886,0,0,1-1.691-1.181A5.326,5.326,0,0,1,89.761,40.2a6.8,6.8,0,0,1-.384-2.324,6.483,6.483,0,0,1,.4-2.324,5.338,5.338,0,0,1,1.131-1.815,5.106,5.106,0,0,1,1.737-1.181,5.772,5.772,0,0,1,2.241-.423,5.458,5.458,0,0,1,2.129.392,5.388,5.388,0,0,1,1.62,1.04l-.547.775a.484.484,0,0,1-.137.14.376.376,0,0,1-.216.055.611.611,0,0,1-.349-.148,5.242,5.242,0,0,0-.523-.333,4.14,4.14,0,0,0-.8-.332,4.069,4.069,0,0,0-1.19-.148,3.914,3.914,0,0,0-1.533.293,3.406,3.406,0,0,0-1.2.845,3.84,3.84,0,0,0-.782,1.354,5.524,5.524,0,0,0-.274,1.811,5.351,5.351,0,0,0,.29,1.824,4.015,4.015,0,0,0,.8,1.354,3.369,3.369,0,0,0,1.2.844,3.792,3.792,0,0,0,1.487.29,5.672,5.672,0,0,0,.872-.059,3.658,3.658,0,0,0,.712-.176,3.05,3.05,0,0,0,.614-.3,4.068,4.068,0,0,0,.571-.442.652.652,0,0,1,.133-.09.322.322,0,0,1,.148-.035m6.541-1.118a11.515,11.515,0,0,0-1.58.144,4.4,4.4,0,0,0-1.055.3,1.434,1.434,0,0,0-.588.442.967.967,0,0,0-.179.567,1.211,1.211,0,0,0,.1.512.943.943,0,0,0,.266.353,1.052,1.052,0,0,0,.395.2,1.83,1.83,0,0,0,.493.063,2.707,2.707,0,0,0,.645-.07,2.551,2.551,0,0,0,.549-.2,2.87,2.87,0,0,0,.493-.312,4.477,4.477,0,0,0,.462-.431Zm-4.475-3.31a4.351,4.351,0,0,1,3.149-1.26,3.065,3.065,0,0,1,1.205.223,2.48,2.48,0,0,1,.883.627,2.649,2.649,0,0,1,.544.955,3.879,3.879,0,0,1,.183,1.228V43.5h-.68a.654.654,0,0,1-.344-.076.507.507,0,0,1-.188-.277l-.165-.7a6.58,6.58,0,0,1-.6.5,3.763,3.763,0,0,1-.621.368,3.189,3.189,0,0,1-.689.231,3.883,3.883,0,0,1-.815.078,2.935,2.935,0,0,1-.88-.129,1.977,1.977,0,0,1-.715-.392,1.876,1.876,0,0,1-.482-.665,2.3,2.3,0,0,1-.176-.931,1.774,1.774,0,0,1,.255-.9,2.305,2.305,0,0,1,.83-.778,5.333,5.333,0,0,1,1.5-.563,11.242,11.242,0,0,1,2.28-.251v-.579a2.018,2.018,0,0,0-.384-1.345,1.41,1.41,0,0,0-1.127-.447,2.448,2.448,0,0,0-.84.126,3.266,3.266,0,0,0-.588.277c-.164.1-.308.2-.43.277a.662.662,0,0,1-.379.126.427.427,0,0,1-.27-.087.706.706,0,0,1-.183-.2Zm10.406,6.964a1.966,1.966,0,0,1-1.482-.54,2.137,2.137,0,0,1-.521-1.541V36.783h-.922a.325.325,0,0,1-.224-.078.321.321,0,0,1-.09-.251v-.619l1.292-.179.343-2.371a.367.367,0,0,1,.122-.207A.341.341,0,0,1,109.13,33h.774v2.668h2.254v1.111H109.9v4.654a.957.957,0,0,0,.235.705.8.8,0,0,0,.591.234,1.074,1.074,0,0,0,.364-.055,1.44,1.44,0,0,0,.259-.129c.073-.045.134-.085.188-.122a.255.255,0,0,1,.14-.055.189.189,0,0,1,.122.035.464.464,0,0,1,.09.113l.454.736a2.638,2.638,0,0,1-.892.532,3.1,3.1,0,0,1-1.072.188m7.449-3.653a11.5,11.5,0,0,0-1.58.144,4.406,4.406,0,0,0-1.057.3,1.43,1.43,0,0,0-.587.442.959.959,0,0,0-.181.567,1.233,1.233,0,0,0,.1.512.957.957,0,0,0,.266.353,1.052,1.052,0,0,0,.395.2,1.841,1.841,0,0,0,.494.063,2.707,2.707,0,0,0,.645-.07,2.527,2.527,0,0,0,.551-.2,2.817,2.817,0,0,0,.493-.312,4.478,4.478,0,0,0,.462-.431Zm-4.476-3.31A4.357,4.357,0,0,1,116.5,35.4a3.061,3.061,0,0,1,1.205.223,2.485,2.485,0,0,1,.885.627,2.626,2.626,0,0,1,.543.955,3.881,3.881,0,0,1,.185,1.228V43.5h-.682a.657.657,0,0,1-.344-.076.515.515,0,0,1-.188-.277l-.164-.7a6.409,6.409,0,0,1-.6.5,3.7,3.7,0,0,1-.621.368,3.138,3.138,0,0,1-.689.231,3.869,3.869,0,0,1-.813.078,2.934,2.934,0,0,1-.88-.129,1.977,1.977,0,0,1-.715-.392,1.859,1.859,0,0,1-.482-.665,2.281,2.281,0,0,1-.176-.931,1.761,1.761,0,0,1,.255-.9,2.29,2.29,0,0,1,.829-.778,5.349,5.349,0,0,1,1.5-.563,11.267,11.267,0,0,1,2.282-.251v-.579a2.018,2.018,0,0,0-.384-1.345,1.412,1.412,0,0,0-1.127-.447,2.456,2.456,0,0,0-.841.126,3.255,3.255,0,0,0-.586.277c-.165.1-.308.2-.431.277a.659.659,0,0,1-.379.126.43.43,0,0,1-.27-.087.726.726,0,0,1-.183-.2Zm9.585,6.839H121.4V31.947h1.534Zm9.124-7.951L127.646,45.8a.66.66,0,0,1-.188.266.547.547,0,0,1-.344.094h-1.135L127.435,43l-3.263-7.449h1.33a.458.458,0,0,1,.305.094.554.554,0,0,1,.157.211l2.018,4.773c.042.12.083.241.122.364s.071.244.1.364c.036-.125.076-.249.118-.372s.085-.244.133-.363l1.948-4.766a.5.5,0,0,1,.172-.218.442.442,0,0,1,.266-.087Zm5.711,1.37a.436.436,0,0,1-.133.144.337.337,0,0,1-.179.043.577.577,0,0,1-.279-.087c-.1-.057-.227-.119-.368-.188a3.4,3.4,0,0,0-.5-.188,2.434,2.434,0,0,0-.689-.087,2.109,2.109,0,0,0-.6.078,1.443,1.443,0,0,0-.458.227,1.021,1.021,0,0,0-.288.344.91.91,0,0,0-.1.427.7.7,0,0,0,.176.493,1.5,1.5,0,0,0,.461.337,4.521,4.521,0,0,0,.649.253q.365.113.743.235a7.015,7.015,0,0,1,.743.286,2.711,2.711,0,0,1,.649.4,1.838,1.838,0,0,1,.462.575,1.754,1.754,0,0,1,.176.822,2.628,2.628,0,0,1-.2,1.036,2.264,2.264,0,0,1-.588.819,2.783,2.783,0,0,1-.957.539,4.025,4.025,0,0,1-1.307.2,4.107,4.107,0,0,1-1.517-.274,3.8,3.8,0,0,1-1.166-.7l.36-.586a.479.479,0,0,1,.157-.169.469.469,0,0,1,.251-.057.526.526,0,0,1,.305.109c.1.073.23.151.375.234a2.861,2.861,0,0,0,.532.235,2.469,2.469,0,0,0,.782.106,2.152,2.152,0,0,0,.68-.1,1.413,1.413,0,0,0,.482-.266,1.07,1.07,0,0,0,.286-.392,1.136,1.136,0,0,0,.094-.462.776.776,0,0,0-.175-.519,1.529,1.529,0,0,0-.462-.357,3.687,3.687,0,0,0-.654-.258q-.367-.109-.752-.235a7.277,7.277,0,0,1-.75-.29,2.535,2.535,0,0,1-.654-.414,1.936,1.936,0,0,1-.462-.61,1.985,1.985,0,0,1-.176-.876,2.145,2.145,0,0,1,.192-.885,2.216,2.216,0,0,1,.556-.743,2.751,2.751,0,0,1,.9-.512,3.646,3.646,0,0,1,1.225-.192,3.89,3.89,0,0,1,1.428.259,3.264,3.264,0,0,1,1.1.689Zm4.6,6.7a1.963,1.963,0,0,1-1.487-.54,2.132,2.132,0,0,1-.516-1.541V36.783h-.924a.292.292,0,0,1-.312-.329v-.619l1.291-.179.344-2.371a.367.367,0,0,1,.122-.207A.344.344,0,0,1,141.12,33h.774v2.668h2.254v1.111h-2.254v4.654a.954.954,0,0,0,.231.705.8.8,0,0,0,.591.234,1.074,1.074,0,0,0,.364-.055,1.39,1.39,0,0,0,.262-.122c.073-.043.136-.084.188-.12a.249.249,0,0,1,.141-.055.191.191,0,0,1,.122.035.471.471,0,0,1,.09.113l.453.735a2.629,2.629,0,0,1-.892.532,3.11,3.11,0,0,1-1.072.181" transform="translate(-24.835 6.529)" fill="#fff"/>
      </g>
    </g>
  </g>
</svg>
