<svg xmlns="http://www.w3.org/2000/svg" width="324.727" height="147.568" viewBox="0 0 324.727 147.568">
  <g id="Group_52324" data-name="Group 52324" transform="translate(-521.378 -264.997)">
    <g id="Group_52325" data-name="Group 52325">
      <g id="Group_51981" data-name="Group 51981" transform="translate(10 10)">
        <path id="Path_76680" data-name="Path 76680" d="M56.989,5.311l2.756.32c1.282.192,1.474.577,1.218,1.859-.513,2.051-1.795,6.922-4.679,16.471-2.756,9.165-4.871,16.022-5.576,17.881-.7,1.666-1.025,1.923-2.564,2.115l-1.859.192-.32.833c1.154,0,5.384-.192,8.075-.192,3.2,0,7.37.192,8.46.192l.32-.833-2.756-.256c-.9-.128-1.282-.513-.961-1.666.577-2.564,1.538-5.9,4.743-17.368a5.912,5.912,0,0,1,2.435-.064c3.525.192,4.55,1.09,3.781,5.127-.32,1.538-1.346,5.063-1.923,7.37-1.282,4.935.577,8.139,6.729,8.139a19.109,19.109,0,0,0,4.55-.385l.513-.9a6.24,6.24,0,0,1-1.538.128c-3.2,0-2.307-3.781-1.73-5.96,1.025-3.717,1.346-6.024.9-7.883-.128-2.82-1.923-5-8.78-6.217V23.9c7.691-.513,14.1-3.781,14.1-11.857,0-1.987-.513-4.23-1.987-5.512-1.538-1.282-3.269-1.987-8.2-1.987-3.14,0-6.153.128-8.2.128s-6.217-.192-7.05-.192ZM71.474,5.5A2.945,2.945,0,0,1,74.1,6.657a5,5,0,0,1,.833,3.269c0,5.448-2.756,13.779-9.229,13.779a10.862,10.862,0,0,1-1.474-.064c3.525-11.921,4.55-15.51,5.063-16.984A1.691,1.691,0,0,1,71.025,5.5Zm26.6,11.6a12.973,12.973,0,0,0-8.332,3.14c-4.614,3.717-7.755,11.023-7.755,16.663,0,7.563,4.614,8.652,8.78,8.652a13.52,13.52,0,0,0,7.755-2.243c4.935-3.333,8.332-11.408,8.332-17.3,0-5.576-2.564-8.908-8.716-8.908Zm.32.961c1.538,0,1.923,1.538,1.923,2.948.064,5.191-3.461,17.048-6.409,21.342-1.218,1.73-2.051,2.371-3.269,2.371s-2.115-1.025-2.115-3.4c0-4.807,3.012-15.638,6.089-20.381,1.474-2.179,2.5-2.884,3.717-2.884Zm26.085-.961a12.973,12.973,0,0,0-8.332,3.14c-4.614,3.717-7.755,11.023-7.755,16.663,0,7.563,4.614,8.652,8.78,8.652a13.52,13.52,0,0,0,7.755-2.243c4.935-3.333,8.332-11.408,8.332-17.3,0-5.576-2.564-8.908-8.716-8.908Zm.32.961c1.538,0,1.923,1.538,1.923,2.948.064,5.191-3.461,17.048-6.409,21.342-1.218,1.73-2.051,2.371-3.269,2.371s-2.115-1.025-2.115-3.4c0-4.807,3.012-15.638,6.089-20.381,1.474-2.179,2.5-2.884,3.717-2.884Zm24.29,18.906c-1.025,3.269-3.461,6.473-6.089,6.473-1.154,0-1.474-.513-1.218-1.666,1.218-5.255,4.871-18.009,6.345-22.5l5.063-.256.641-.961h-5.319c1.09-3.461,2.371-7.691,2.884-8.973a34.136,34.136,0,0,1-8.075,1.474c-.577,1.923-1.154,4.166-2.179,7.5h-3.525l-.449.961,3.589.256c-1.538,5.319-4.1,14.164-5.768,19.676-1.346,4.486-.192,6.6,4.486,6.6a11.461,11.461,0,0,0,10.254-6.986Zm21.855-20-1.6,2.243c-.769-1.025-2.82-2.115-5.576-2.115a8.973,8.973,0,0,0-9.549,9.229,8.1,8.1,0,0,0,2.307,5.832c1.795,1.987,4.294,4.55,5.255,5.7a4.207,4.207,0,0,1,1.025,2.884c-.064,2.371-1.73,3.845-4.486,3.845-3.781,0-6.024-2.628-5.576-7.178a20.145,20.145,0,0,1,.577-3.525l-.769.064a94.315,94.315,0,0,1-3.2,9.421,18.576,18.576,0,0,0,8.075,2.179,11.961,11.961,0,0,0,8.4-2.948,8.486,8.486,0,0,0,2.756-6.345,7.1,7.1,0,0,0-2.115-5.191c-1.282-1.282-3.909-3.909-5.255-5.384a4.932,4.932,0,0,1-1.474-3.845A3.743,3.743,0,0,1,163.442,18c3.589,0,5.255,2.948,3.974,8.908l.7.128a54.559,54.559,0,0,1,3.269-9.549Zm24.674.128a12.973,12.973,0,0,0-8.332,3.14c-4.614,3.717-7.755,11.023-7.755,16.663,0,7.563,4.614,8.652,8.78,8.652a13.52,13.52,0,0,0,7.755-2.243c4.935-3.333,8.332-11.408,8.332-17.3,0-5.576-2.564-8.908-8.716-8.908Zm.32.961c1.538,0,1.923,1.538,1.923,2.948.064,5.191-3.461,17.048-6.409,21.342-1.218,1.73-2.051,2.371-3.269,2.371s-2.115-1.025-2.115-3.4c0-4.807,3.012-15.638,6.089-20.381,1.474-2.179,2.5-2.884,3.717-2.884Zm11.6,0-.385.961,4.038.256c-3.333,14.036-7.306,30.314-8.844,34.929-.577,1.73-1.282,2.371-2.243,2.371-1.282,0-2.756-1.474-3.974-3.525-.577-.961-1.154-1.025-2.243-.513a4.7,4.7,0,0,0-2.371,3.525c0,2.051,2.435,3.333,4.166,3.333A9.249,9.249,0,0,0,201,57.736a27.692,27.692,0,0,0,10.383-12.049c1.6-3.781,4.1-12.049,7.563-26.4l4.871-.256.449-.961h-5A126.9,126.9,0,0,1,222.725,5.76q1.154-3.076,2.692-3.076c1.025,0,1.282.9,1.282,2.243a18.056,18.056,0,0,1-.449,3.012c-.192.9.256,1.923,2.435,1.923a3.5,3.5,0,0,0,3.461-3.525c0-2.884-1.795-4.679-5.512-4.679A11.369,11.369,0,0,0,218.5,4.991c-3.269,3.076-5.127,6.729-6.986,13.074Z" transform="translate(530.034 253.339)" fill="#fff"/>
        <path id="Path_76681" data-name="Path 76681" d="M80.144,34.985c-2.051,5.319-5.319,8.844-11.216,8.844a5.747,5.747,0,0,1-4.614-2.115,13.681,13.681,0,0,1-1.859-7.563,44.377,44.377,0,0,1,7.37-24.418c2.051-2.884,4.807-4.871,7.5-4.871A4.461,4.461,0,0,1,81.874,8c1.025,2.371,1.09,5.384.577,8.78h.7a98.926,98.926,0,0,1,4.038-12.5l-.513-.256L84.438,7.106c-1.41-2.179-4.679-3.333-8.011-3.333A17.558,17.558,0,0,0,63.865,8.58c-6.473,5.9-9.934,16.022-9.934,23.329,0,8.075,3.2,13.843,12.113,13.843a16.483,16.483,0,0,0,14.612-8.075V34.985ZM89.18,3.709l2.628.192c.961.064,1.154.32,1.025,1.218-.513,2.243-1.538,5.832-4.614,16.407C85.079,32.1,82.13,40.881,80.72,45.3c2.307-.192,5.576-.449,7.563-.449.9-3.525,1.666-5.768,2.435-8.011a52.452,52.452,0,0,1,4.807-11.536c2.435-3.909,5.127-5.576,6.409-5.576,1.154,0,1.218,1.218.9,2.307-1.09,3.2-3.269,9.357-5.64,16.151-1.154,3.461-2.115,7.37,2.307,7.37,4.166,0,7.883-2.756,10.318-7.563l-.577-.769c-1.538,3.14-4.166,5.448-5.384,5.448-.449,0-.449-.769-.256-1.41,1.346-4.422,3.653-10.9,5.768-16.984.513-1.666,1.346-4.614-.192-6.089a4.339,4.339,0,0,0-3.14-1.09c-4.679,0-8.78,3.781-12.049,8.2,3.012-10,6.281-20.573,7.5-23.649A93.094,93.094,0,0,1,89.373,2.94ZM138.4,37.676c-1.474,2.82-3.589,5.063-5,5.063-.833,0-.577-1.474-.385-2.435.7-3.589,4.614-16.215,6.794-22.5h-7.05l-.513,1.73c-.577-1.41-1.538-2.435-3.909-2.435a11.4,11.4,0,0,0-7.05,2.564c-5.512,4.1-9.87,13.2-9.87,20.06,0,3.333,1.218,5.832,4.55,5.832,5.127,0,8.973-4.486,10.7-7.306a.089.089,0,0,0,.128,0,8.9,8.9,0,0,0-.385,1.218c-.833,2.948-.7,6.089,3.012,6.089,5.063,0,8.2-4.358,9.613-7.242Zm-19.483,2.5c0-5.448,3.653-15.446,7.5-19.932,1.218-1.474,2.051-1.859,3.076-1.859.961,0,1.73.9,1.73,3.012,0,2.692-2.564,9.87-3.589,12.049-3.012,6.794-5.512,9.229-7.434,9.229-1.09,0-1.282-1.282-1.282-2.435Zm48.131-2.435c-1.41,2.756-4.038,5-5.319,5-.641,0-.7-.641-.513-1.346,1.666-5.512,4.038-11.985,5.64-16.6.577-1.795,1.474-5.384-.192-6.794a4.018,4.018,0,0,0-2.82-.9c-5.191,0-9.742,4.935-12.433,9.421a61.794,61.794,0,0,0,2.435-9.421,78.35,78.35,0,0,1-10.9,1.6l-.192.9,2.884-.064c.577,0,.769.192.577,1.218-.961,4.871-4.486,16.215-7.563,24.61,1.6-.256,5.576-.513,7.306-.577,1.346-4.743,2.628-8.139,3.589-11.088,1.538-4.23,6.089-13.715,10.062-13.715,1.154,0,1.282,1.154.769,2.756-1.282,3.845-3.909,11.28-5.576,16.022-1.154,3.269-1.666,6.793,2.564,6.793,3.845,0,7.947-2.435,10.254-7.178ZM183.264,17.1c-6.922,0-11.792,6.217-11.792,12.5a6.818,6.818,0,0,0,2.307,5.512c-3.333,1.154-5.832,3.4-5.832,6.281,0,2.756,1.859,4.486,4.807,5.576,2.692.961,5.384,1.859,8.588,3.012,1.795.641,3.14,1.923,3.14,3.781,0,3.076-2.692,4.807-6.922,4.807-4.743,0-9.806-2.307-9.806-6.537,0-2.371,1.859-4.1,4.807-3.717l.064-.641a10.614,10.614,0,0,0-2.884-.513c-2.435,0-6.217,1.025-6.217,5.063,0,4.743,6.153,7.627,12.241,7.627,6.729,0,14.036-3.14,14.036-10.7,0-4.1-2.692-5.832-6.281-6.858-2.884-.833-5.7-1.73-8.268-2.564-1.6-.513-2.371-1.154-2.371-2.179,0-.833.449-1.474,1.666-1.859a10.7,10.7,0,0,0,4.871,1.09c6.922,0,11.664-5.576,11.664-12.5a9.6,9.6,0,0,0-1.09-4.422,7.367,7.367,0,0,1,5.127.961,5.573,5.573,0,0,0,1.666-2.628c0-.641-.769-1.474-2.243-1.474-1.6,0-3.012.7-5.127,2.5-1.282-1.41-3.333-2.115-5.96-2.115Zm.577.961c.7,0,1.538.513,1.538,2.307,0,3.4-1.923,10.9-3.781,13.779-.705,1.09-1.41,1.73-2.307,1.73-.961,0-1.73-.577-1.73-2.692,0-3.589,1.987-10.831,4.1-13.651a2.819,2.819,0,0,1,2.115-1.474Zm28.84,17.5H212.3c-1.794,5-5.191,7.883-8.716,7.883-2.5,0-3.4-2.243-3.4-5.448a35.833,35.833,0,0,1,.769-6.409c2.371-.449,8.46-1.923,11.023-3.525a5.393,5.393,0,0,0,3.14-4.871c0-3.653-1.859-6.089-6.473-6.089A12.487,12.487,0,0,0,200.5,20.18c-5.127,4.23-7.819,11.472-7.819,16.92,0,5,2.371,8.46,7.37,8.46A15.312,15.312,0,0,0,212.809,38Zm-4.614-17.5c1.025,0,1.346,1.154,1.346,2.692,0,3.4-1.154,6.858-3.461,8.075a18.717,18.717,0,0,1-4.743,1.666c3.076-11.152,5.9-12.433,6.794-12.433Z" transform="translate(555.883 298.721)" fill="#fff"/>
      </g>
      <path id="Path_76803" data-name="Path 76803" d="M-155.253-9.022a5,5,0,0,0,1.885-.332A3.834,3.834,0,0,0-152-10.27a3.82,3.82,0,0,0,.832-1.391,5.365,5.365,0,0,0,.28-1.768,3.1,3.1,0,0,0-.852-2.294,3.528,3.528,0,0,0-2.594-.851h-2.613l-.923,7.553Zm1.183-9.646a8.379,8.379,0,0,1,2.613.364,4.993,4.993,0,0,1,1.826,1.021,4.061,4.061,0,0,1,1.073,1.573,5.648,5.648,0,0,1,.351,2.035,7.569,7.569,0,0,1-.475,2.724,5.817,5.817,0,0,1-1.4,2.139,6.525,6.525,0,0,1-2.295,1.4,8.965,8.965,0,0,1-3.133.507h-2.613l-.845,6.9h-2.652l2.275-18.668ZM-148.012,0l2.327-19.188h2.5L-145.516,0Zm14.339-11.479a6.576,6.576,0,0,0-1-.078,4.553,4.553,0,0,0-2.171.54,5.77,5.77,0,0,0-1.762,1.45,7.109,7.109,0,0,0-1.183,2.113,7.33,7.33,0,0,0-.436,2.515,4.166,4.166,0,0,0,.494,2.268,1.609,1.609,0,0,0,1.43.748,2.139,2.139,0,0,0,1.2-.4,4.729,4.729,0,0,0,1.118-1.092,9.31,9.31,0,0,0,.975-1.645,14.978,14.978,0,0,0,.786-2.067Zm-.884,8.177a10.567,10.567,0,0,1-.981,1.437,6.841,6.841,0,0,1-1.118,1.1,4.835,4.835,0,0,1-1.248.7,3.827,3.827,0,0,1-1.359.247,3.277,3.277,0,0,1-1.424-.306,3.049,3.049,0,0,1-1.1-.9,4.308,4.308,0,0,1-.715-1.462,7.179,7.179,0,0,1-.253-2,9.078,9.078,0,0,1,.292-2.294,9.067,9.067,0,0,1,.839-2.113,9.5,9.5,0,0,1,1.307-1.82,8.466,8.466,0,0,1,1.7-1.43,8.165,8.165,0,0,1,2.021-.929,7.724,7.724,0,0,1,2.269-.332,10.3,10.3,0,0,1,1.684.137,7.28,7.28,0,0,1,1.632.474L-132.606,0h-1.326a.744.744,0,0,1-.663-.254,1.088,1.088,0,0,1-.169-.618Zm8.281-6.747a8.052,8.052,0,0,1,2.353-2.509,4.853,4.853,0,0,1,2.678-.845,3.176,3.176,0,0,1,1.476.332,2.671,2.671,0,0,1,1.047.969,4.13,4.13,0,0,1,.552,1.566,7.423,7.423,0,0,1-.007,2.125L-119.164,0H-121.7l1-8.411a3.975,3.975,0,0,0-.176-2.191,1.347,1.347,0,0,0-1.319-.7,2.594,2.594,0,0,0-1.222.332,4.792,4.792,0,0,0-1.2.936A7.757,7.757,0,0,0-125.7-8.567a9.607,9.607,0,0,0-.839,1.911L-127.276,0h-2.535l1.573-13.234h1.274a.9.9,0,0,1,.637.208.855.855,0,0,1,.221.65Zm22.607-1.144h-.013L-105.047,0H-107.5l1.378-11.193h-6.006l-.78,6.331q-.065.533-.1.858t-.059.514q-.02.188-.02.266v.117a1.3,1.3,0,0,0,.293.923,1.043,1.043,0,0,0,.8.312,1.6,1.6,0,0,0,.565-.091,2.327,2.327,0,0,0,.416-.2q.175-.11.3-.2a.394.394,0,0,1,.228-.091.258.258,0,0,1,.188.059.742.742,0,0,1,.124.188l.546,1.222a4.948,4.948,0,0,1-1.482.884,4.64,4.64,0,0,1-1.664.312A2.855,2.855,0,0,1-114.829-.5a2.807,2.807,0,0,1-.787-2.047q0-.078.007-.2t.026-.357q.02-.234.059-.624t.117-1l.793-6.461h-1.365a.446.446,0,0,1-.338-.137.48.48,0,0,1-.1-.4l.13-.975,1.989-.3,1.014-3.965a.663.663,0,0,1,.221-.345.589.589,0,0,1,.377-.123h1.339l-.559,4.459h8.45Zm1.339-6.1a1.557,1.557,0,0,1-.149.67,1.963,1.963,0,0,1-.39.559,1.788,1.788,0,0,1-.552.377,1.575,1.575,0,0,1-.637.137,1.486,1.486,0,0,1-.624-.137,1.677,1.677,0,0,1-.527-.377,1.887,1.887,0,0,1-.364-.559,1.682,1.682,0,0,1-.136-.67,1.682,1.682,0,0,1,.136-.669,1.824,1.824,0,0,1,.37-.559,1.856,1.856,0,0,1,.533-.384,1.429,1.429,0,0,1,.624-.143,1.575,1.575,0,0,1,.637.137,1.788,1.788,0,0,1,.553.377,1.861,1.861,0,0,1,.383.559A1.647,1.647,0,0,1-102.329-17.29Zm3.77,7.241a8.052,8.052,0,0,1,2.353-2.509,4.853,4.853,0,0,1,2.678-.845,3.176,3.176,0,0,1,1.476.332,2.671,2.671,0,0,1,1.047.969,4.13,4.13,0,0,1,.552,1.566,7.423,7.423,0,0,1-.007,2.125L-91.449,0h-2.535l1-8.411a3.975,3.975,0,0,0-.176-2.191,1.347,1.347,0,0,0-1.319-.7,2.594,2.594,0,0,0-1.222.332,4.792,4.792,0,0,0-1.2.936,7.757,7.757,0,0,0-1.079,1.463,9.607,9.607,0,0,0-.839,1.911L-99.561,0H-102.1l1.573-13.234h1.274a.9.9,0,0,1,.637.208.855.855,0,0,1,.221.65ZM-81.243.247a3.245,3.245,0,0,0-.045-.559,3,3,0,0,0-.124-.481A13.273,13.273,0,0,0-84.3-1.014a6.864,6.864,0,0,0-2,.358A2.582,2.582,0,0,0-87.451.1a1.584,1.584,0,0,0-.37,1A1.516,1.516,0,0,0-87.08,2.47a4.071,4.071,0,0,0,2.158.468,4.989,4.989,0,0,0,1.5-.214,3.8,3.8,0,0,0,1.163-.579,2.65,2.65,0,0,0,.748-.858A2.16,2.16,0,0,0-81.243.247Zm-2.47-6.266a2.33,2.33,0,0,0,1.183-.3,2.784,2.784,0,0,0,.871-.78,3.572,3.572,0,0,0,.533-1.085,4.573,4.573,0,0,0,.195-1.229,2.322,2.322,0,0,0-.552-1.677,2.024,2.024,0,0,0-1.528-.572,2.421,2.421,0,0,0-1.176.28,2.688,2.688,0,0,0-.865.741,3.327,3.327,0,0,0-.533,1.066,4.283,4.283,0,0,0-.182,1.242,2.477,2.477,0,0,0,.539,1.716A1.935,1.935,0,0,0-83.713-6.019ZM-76.6-12.74l-.117.845a.753.753,0,0,1-.546.676l-1.56.312a3.568,3.568,0,0,1,.156.65,5.057,5.057,0,0,1,.052.741,4.644,4.644,0,0,1-.156,1.151,5.256,5.256,0,0,1-.357.942,8.61,8.61,0,0,1-.462.813q-.247.383-.462.767a5,5,0,0,0-.357.793,2.684,2.684,0,0,0-.143.891,1.961,1.961,0,0,0,.254.981q.253.449.559.923a8.474,8.474,0,0,1,.559,1.021A3.031,3.031,0,0,1-78.929.052a4.008,4.008,0,0,1-.442,1.781A4.548,4.548,0,0,1-80.6,3.321a6.111,6.111,0,0,1-1.95,1.021,8.308,8.308,0,0,1-2.593.377,8.5,8.5,0,0,1-2.1-.24A5.287,5.287,0,0,1-88.848,3.8a3.236,3.236,0,0,1-1.027-1.046,2.568,2.568,0,0,1-.364-1.339,3.051,3.051,0,0,1,.357-1.495,3.489,3.489,0,0,1,.968-1.111A5.376,5.376,0,0,1-87.5-1.943a8.908,8.908,0,0,1,1.7-.429,11.584,11.584,0,0,1,1.826-.13,12.793,12.793,0,0,1,1.8.137,2.389,2.389,0,0,1-.162-.468,2.37,2.37,0,0,1-.059-.546,3.185,3.185,0,0,1,.117-.826,4.847,4.847,0,0,1,.377-.942A3.928,3.928,0,0,1-83-4.628a4.978,4.978,0,0,1-1.417.182,4.026,4.026,0,0,1-1.417-.247A3.3,3.3,0,0,1-87-5.427a3.481,3.481,0,0,1-.793-1.215,4.55,4.55,0,0,1-.293-1.7A5.126,5.126,0,0,1-87.73-10.2,4.852,4.852,0,0,1-86.7-11.823a5.089,5.089,0,0,1,1.677-1.144,5.72,5.72,0,0,1,2.3-.436,5.4,5.4,0,0,1,1.339.163,3.854,3.854,0,0,1,1.157.5Zm6.357,10.192v-.2q0-.123.02-.357t.065-.624q.046-.39.123-1l.793-6.422h-1.417a.41.41,0,0,1-.318-.137.485.485,0,0,1-.085-.41l.117-1.027,2.015-.3,1.014-3.939a.682.682,0,0,1,.215-.345.562.562,0,0,1,.37-.123h1.352L-66.54-13h3.393l-.208,1.846h-3.406l-.78,6.292q-.065.533-.1.858t-.059.514q-.02.188-.026.266t-.007.117a1.285,1.285,0,0,0,.3.923,1.048,1.048,0,0,0,.793.312,1.6,1.6,0,0,0,.565-.091,2.56,2.56,0,0,0,.423-.2q.182-.11.305-.2a.394.394,0,0,1,.228-.091.263.263,0,0,1,.182.059.64.64,0,0,1,.13.188l.533,1.222A4.948,4.948,0,0,1-65.76-.1a4.606,4.606,0,0,1-1.651.312A2.879,2.879,0,0,1-69.465-.5,2.752,2.752,0,0,1-70.245-2.548Zm11.518-7.917a7.551,7.551,0,0,1,2.236-2.2A4.761,4.761,0,0,1-54-13.4a3.206,3.206,0,0,1,1.488.332,2.671,2.671,0,0,1,1.047.969,4.13,4.13,0,0,1,.552,1.566A7.708,7.708,0,0,1-50.9-8.411L-51.889,0h-2.535l.988-8.411a4,4,0,0,0-.176-2.2,1.356,1.356,0,0,0-1.333-.7A2.482,2.482,0,0,0-56.108-11a4.861,4.861,0,0,0-1.157.877,7.109,7.109,0,0,0-1.053,1.378,9.988,9.988,0,0,0-.839,1.8L-60,0h-2.535l2.327-19.188h2.535Zm16.276-1.118a3.206,3.206,0,0,0-1.43.318,3.937,3.937,0,0,0-1.17.884,5.363,5.363,0,0,0-.884,1.326A8.027,8.027,0,0,0-46.507-7.4a25.831,25.831,0,0,0,3.062-.546A7.448,7.448,0,0,0-41.671-8.6a1.981,1.981,0,0,0,.826-.761,1.893,1.893,0,0,0,.2-.858,1.227,1.227,0,0,0-.1-.461,1.253,1.253,0,0,0-.312-.442,1.663,1.663,0,0,0-.559-.332A2.384,2.384,0,0,0-42.451-11.583Zm3.77,9.139a13.138,13.138,0,0,1-1.313,1.183A7.426,7.426,0,0,1-41.3-.442a5.91,5.91,0,0,1-1.4.475,7.889,7.889,0,0,1-1.586.15A5.256,5.256,0,0,1-46.332-.2a4.316,4.316,0,0,1-1.554-1.085,4.852,4.852,0,0,1-.981-1.7,6.782,6.782,0,0,1-.345-2.229A9.743,9.743,0,0,1-49-7.247a9.069,9.069,0,0,1,.631-1.911,8.82,8.82,0,0,1,1.014-1.683,6.8,6.8,0,0,1,1.365-1.345,6.283,6.283,0,0,1,1.69-.884,6.057,6.057,0,0,1,1.989-.318,4.869,4.869,0,0,1,1.755.286,3.826,3.826,0,0,1,1.229.734,2.907,2.907,0,0,1,.722.995,2.7,2.7,0,0,1,.234,1.066A3.562,3.562,0,0,1-38.72-8.73,3.291,3.291,0,0,1-40-7.43a9.5,9.5,0,0,1-2.554,1.008,27.939,27.939,0,0,1-4.173.689,2.117,2.117,0,0,0-.013.234v.234a3.9,3.9,0,0,0,.735,2.574,2.737,2.737,0,0,0,2.216.871A4.4,4.4,0,0,0-42.7-1.943a4.431,4.431,0,0,0,.852-.305,4.117,4.117,0,0,0,.656-.4l.527-.4a4.888,4.888,0,0,1,.448-.305.83.83,0,0,1,.429-.124.456.456,0,0,1,.254.072,1.315,1.315,0,0,1,.215.175Zm18.3-13.208a1.1,1.1,0,0,1-.292.306.64.64,0,0,1-.358.1.748.748,0,0,1-.474-.221,6.711,6.711,0,0,0-.637-.481,5.074,5.074,0,0,0-.923-.481,3.526,3.526,0,0,0-1.333-.221,3.864,3.864,0,0,0-1.43.247,3.11,3.11,0,0,0-1.053.67,2.79,2.79,0,0,0-.65.995,3.361,3.361,0,0,0-.221,1.222,1.876,1.876,0,0,0,.312,1.1,2.786,2.786,0,0,0,.819.767,6.614,6.614,0,0,0,1.151.566q.643.247,1.319.514a14.459,14.459,0,0,1,1.319.6,4.963,4.963,0,0,1,1.15.813A3.708,3.708,0,0,1-20.858-8a3.97,3.97,0,0,1,.312,1.657,6.929,6.929,0,0,1-.462,2.528,6.262,6.262,0,0,1-1.319,2.087,6.2,6.2,0,0,1-2.08,1.417,6.941,6.941,0,0,1-2.743.52A7.062,7.062,0,0,1-28.743.032a6.814,6.814,0,0,1-1.424-.494,6.136,6.136,0,0,1-1.215-.767,6,6,0,0,1-.981-1.008l.936-1.274a1.377,1.377,0,0,1,.3-.247.682.682,0,0,1,.364-.1.618.618,0,0,1,.358.136,4.811,4.811,0,0,1,.416.345q.227.208.514.442a4.4,4.4,0,0,0,.663.442,4.011,4.011,0,0,0,.871.345,4.257,4.257,0,0,0,1.131.136,4.208,4.208,0,0,0,1.541-.266,3.339,3.339,0,0,0,1.163-.747,3.2,3.2,0,0,0,.735-1.157,4.228,4.228,0,0,0,.253-1.5,2.034,2.034,0,0,0-.306-1.157,2.674,2.674,0,0,0-.812-.773,6.031,6.031,0,0,0-1.151-.553q-.643-.234-1.313-.481T-28.015-9.2a4.448,4.448,0,0,1-1.15-.8,3.628,3.628,0,0,1-.812-1.2,4.419,4.419,0,0,1-.306-1.748,6.03,6.03,0,0,1,.422-2.229,5.689,5.689,0,0,1,1.215-1.892,5.866,5.866,0,0,1,1.931-1.306,6.459,6.459,0,0,1,2.568-.487,6,6,0,0,1,2.632.565A5.3,5.3,0,0,1-19.6-16.783Zm8.034,4.069a3.206,3.206,0,0,0-1.43.318,3.937,3.937,0,0,0-1.17.884,5.363,5.363,0,0,0-.884,1.326A8.027,8.027,0,0,0-16.4-7.4a25.832,25.832,0,0,0,3.062-.546A7.448,7.448,0,0,0-11.563-8.6a1.981,1.981,0,0,0,.826-.761,1.893,1.893,0,0,0,.2-.858,1.227,1.227,0,0,0-.1-.461,1.253,1.253,0,0,0-.312-.442,1.663,1.663,0,0,0-.559-.332A2.384,2.384,0,0,0-12.343-11.583Zm3.77,9.139A13.138,13.138,0,0,1-9.886-1.261a7.426,7.426,0,0,1-1.307.819,5.91,5.91,0,0,1-1.4.475,7.889,7.889,0,0,1-1.586.15A5.256,5.256,0,0,1-16.224-.2a4.316,4.316,0,0,1-1.554-1.085,4.852,4.852,0,0,1-.982-1.7A6.782,6.782,0,0,1-19.1-5.213a9.744,9.744,0,0,1,.215-2.035,9.069,9.069,0,0,1,.631-1.911,8.82,8.82,0,0,1,1.014-1.683,6.8,6.8,0,0,1,1.365-1.345,6.283,6.283,0,0,1,1.69-.884A6.057,6.057,0,0,1-12.2-13.39a4.869,4.869,0,0,1,1.755.286,3.826,3.826,0,0,1,1.228.734,2.907,2.907,0,0,1,.722.995,2.7,2.7,0,0,1,.234,1.066A3.562,3.562,0,0,1-8.612-8.73a3.291,3.291,0,0,1-1.281,1.3,9.5,9.5,0,0,1-2.554,1.008,27.939,27.939,0,0,1-4.173.689,2.118,2.118,0,0,0-.013.234v.234A3.9,3.9,0,0,0-15.9-2.691a2.737,2.737,0,0,0,2.216.871,4.4,4.4,0,0,0,1.092-.123,4.431,4.431,0,0,0,.852-.305,4.117,4.117,0,0,0,.656-.4l.527-.4a4.888,4.888,0,0,1,.448-.305.83.83,0,0,1,.429-.124.456.456,0,0,1,.253.072,1.315,1.315,0,0,1,.215.175Zm8.151-9.139a3.206,3.206,0,0,0-1.43.318,3.937,3.937,0,0,0-1.17.884,5.363,5.363,0,0,0-.884,1.326A8.027,8.027,0,0,0-4.478-7.4a25.831,25.831,0,0,0,3.062-.546A7.448,7.448,0,0,0,.358-8.6a1.981,1.981,0,0,0,.826-.761,1.893,1.893,0,0,0,.2-.858,1.227,1.227,0,0,0-.1-.461,1.253,1.253,0,0,0-.312-.442,1.663,1.663,0,0,0-.559-.332A2.384,2.384,0,0,0-.422-11.583Zm3.77,9.139A13.138,13.138,0,0,1,2.035-1.261,7.426,7.426,0,0,1,.728-.442a5.91,5.91,0,0,1-1.4.475,7.889,7.889,0,0,1-1.586.15A5.256,5.256,0,0,1-4.3-.2,4.316,4.316,0,0,1-5.856-1.287a4.852,4.852,0,0,1-.981-1.7,6.782,6.782,0,0,1-.345-2.229,9.744,9.744,0,0,1,.214-2.035,9.069,9.069,0,0,1,.63-1.911,8.82,8.82,0,0,1,1.014-1.683,6.8,6.8,0,0,1,1.365-1.345,6.283,6.283,0,0,1,1.69-.884A6.057,6.057,0,0,1-.279-13.39a4.869,4.869,0,0,1,1.755.286A3.826,3.826,0,0,1,2.7-12.37a2.907,2.907,0,0,1,.722.995,2.7,2.7,0,0,1,.234,1.066A3.562,3.562,0,0,1,3.309-8.73a3.291,3.291,0,0,1-1.281,1.3A9.5,9.5,0,0,1-.526-6.422,27.939,27.939,0,0,1-4.7-5.733a2.117,2.117,0,0,0-.013.234v.234a3.9,3.9,0,0,0,.735,2.574,2.737,2.737,0,0,0,2.216.871A4.4,4.4,0,0,0-.669-1.943a4.431,4.431,0,0,0,.852-.305,4.117,4.117,0,0,0,.656-.4l.527-.4a4.888,4.888,0,0,1,.448-.305.83.83,0,0,1,.429-.124A.456.456,0,0,1,2.5-3.4a1.315,1.315,0,0,1,.215.175Zm10.7-7.839a2.632,2.632,0,0,0-1.144-.9,3.609,3.609,0,0,0-1.326-.26,2.843,2.843,0,0,0-1.228.273,3.807,3.807,0,0,0-1.053.741,5.413,5.413,0,0,0-.852,1.1,7.868,7.868,0,0,0-.637,1.365,9.18,9.18,0,0,0-.4,1.508,8.888,8.888,0,0,0-.136,1.534,4.058,4.058,0,0,0,.533,2.288,1.721,1.721,0,0,0,1.508.78A2.3,2.3,0,0,0,10.53-2.23a5.012,5.012,0,0,0,1.183-1.059,9.391,9.391,0,0,0,1.059-1.6A12.922,12.922,0,0,0,13.631-6.9Zm3.588-8.9L15.269,0H13.943a.744.744,0,0,1-.663-.254,1.088,1.088,0,0,1-.169-.618l.221-2.535a10.479,10.479,0,0,1-1.073,1.482A7.718,7.718,0,0,1,11.05-.793a5.293,5.293,0,0,1-1.313.721,3.984,3.984,0,0,1-1.4.254A3.144,3.144,0,0,1,5.72-1.04a5.815,5.815,0,0,1-.955-3.627,10.342,10.342,0,0,1,.227-2.152,11.19,11.19,0,0,1,.637-2.041,9.889,9.889,0,0,1,.988-1.8A7.565,7.565,0,0,1,7.911-12.1a5.806,5.806,0,0,1,1.54-.956,4.462,4.462,0,0,1,1.736-.344,4.113,4.113,0,0,1,1.748.364,3.737,3.737,0,0,1,1.333,1.027l.884-7.176ZM26.682-11a.877.877,0,0,1-.227.241.505.505,0,0,1-.28.071.744.744,0,0,1-.41-.143q-.214-.143-.52-.312a4.4,4.4,0,0,0-.734-.312,3.312,3.312,0,0,0-1.04-.143,3.156,3.156,0,0,0-1.027.156,2.575,2.575,0,0,0-.786.422,1.814,1.814,0,0,0-.507.63,1.744,1.744,0,0,0-.176.767,1.166,1.166,0,0,0,.234.741,2.22,2.22,0,0,0,.611.527,5.176,5.176,0,0,0,.865.41q.487.182.994.384t.995.448a3.634,3.634,0,0,1,.865.6,2.784,2.784,0,0,1,.611.865,2.865,2.865,0,0,1,.234,1.209,4.377,4.377,0,0,1-.364,1.761,4.463,4.463,0,0,1-1.046,1.482,5.054,5.054,0,0,1-1.645,1.02A5.872,5.872,0,0,1,21.17.208a5.319,5.319,0,0,1-2.249-.455,4.67,4.67,0,0,1-1.6-1.157l.624-.975a.758.758,0,0,1,.663-.377.672.672,0,0,1,.435.182q.214.182.527.4a3.938,3.938,0,0,0,.767.4,3.187,3.187,0,0,0,1.17.182,3.123,3.123,0,0,0,1.1-.182,2.54,2.54,0,0,0,.826-.488,2.051,2.051,0,0,0,.514-.708,2.125,2.125,0,0,0,.176-.858,1.373,1.373,0,0,0-.234-.813,2,2,0,0,0-.611-.559,4.852,4.852,0,0,0-.865-.4q-.487-.176-.988-.364t-.988-.416a3.317,3.317,0,0,1-.865-.579,2.725,2.725,0,0,1-.611-.851,2.855,2.855,0,0,1-.234-1.216,4.091,4.091,0,0,1,.338-1.632,4.289,4.289,0,0,1,.969-1.4,4.7,4.7,0,0,1,1.534-.975,5.44,5.44,0,0,1,2.048-.364,5.35,5.35,0,0,1,2.138.4,4.822,4.822,0,0,1,1.58,1.085Zm12,9.2a2.915,2.915,0,0,0,1.657-.5A4.367,4.367,0,0,0,41.613-3.64a6.961,6.961,0,0,0,.813-1.95A9.2,9.2,0,0,0,42.712-7.9a4.3,4.3,0,0,0-.676-2.652,2.349,2.349,0,0,0-1.976-.871,2.906,2.906,0,0,0-1.664.5,4.425,4.425,0,0,0-1.268,1.339,6.865,6.865,0,0,0-.812,1.944A9.2,9.2,0,0,0,36.03-5.33a4.337,4.337,0,0,0,.676,2.645A2.328,2.328,0,0,0,38.682-1.794ZM38.448.182a5.226,5.226,0,0,1-1.989-.37,4.376,4.376,0,0,1-1.567-1.073,4.966,4.966,0,0,1-1.027-1.722,6.814,6.814,0,0,1-.37-2.333,9.311,9.311,0,0,1,.527-3.152,8.361,8.361,0,0,1,1.443-2.574,6.8,6.8,0,0,1,2.158-1.729,5.816,5.816,0,0,1,2.672-.63,5.226,5.226,0,0,1,1.989.37,4.376,4.376,0,0,1,1.567,1.073,4.966,4.966,0,0,1,1.027,1.722,6.772,6.772,0,0,1,.37,2.32,9.272,9.272,0,0,1-.527,3.14A8.446,8.446,0,0,1,43.277-2.2,6.838,6.838,0,0,1,41.119-.455,5.768,5.768,0,0,1,38.448.182ZM50.771-11.154l-1.3,10.7-.611,2.613a1.8,1.8,0,0,1-.468.793,1.208,1.208,0,0,1-.845.273h-1l1.729-14.352-1.222-.182a.893.893,0,0,1-.41-.208.492.492,0,0,1-.11-.442L46.65-13h1.859l.143-1.2a6.326,6.326,0,0,1,.578-2.015,5.177,5.177,0,0,1,1.092-1.5,4.458,4.458,0,0,1,1.508-.936,5.209,5.209,0,0,1,1.84-.318,4.1,4.1,0,0,1,1.482.26l-.234,1.326a.35.35,0,0,1-.364.286q-.3.013-.728.013a3.128,3.128,0,0,0-1.007.156,2.187,2.187,0,0,0-.826.507,2.745,2.745,0,0,0-.6.917,5.25,5.25,0,0,0-.345,1.384L50.914-13h3.211l-.234,1.846Zm21.892-5.278H67.269L65.241,0H62.589l2-16.432H59.17l.26-2.236H72.95ZM74.6-1.794a2.915,2.915,0,0,0,1.658-.5A4.367,4.367,0,0,0,77.532-3.64a6.961,6.961,0,0,0,.813-1.95A9.2,9.2,0,0,0,78.631-7.9a4.3,4.3,0,0,0-.676-2.652,2.349,2.349,0,0,0-1.976-.871,2.906,2.906,0,0,0-1.664.5,4.425,4.425,0,0,0-1.268,1.339,6.865,6.865,0,0,0-.812,1.944,9.2,9.2,0,0,0-.286,2.314,4.337,4.337,0,0,0,.676,2.645A2.328,2.328,0,0,0,74.6-1.794ZM74.367.182a5.225,5.225,0,0,1-1.989-.37,4.376,4.376,0,0,1-1.566-1.073,4.966,4.966,0,0,1-1.027-1.722,6.814,6.814,0,0,1-.371-2.333,9.311,9.311,0,0,1,.527-3.152,8.361,8.361,0,0,1,1.443-2.574,6.8,6.8,0,0,1,2.158-1.729,5.816,5.816,0,0,1,2.672-.63,5.226,5.226,0,0,1,1.989.37,4.376,4.376,0,0,1,1.567,1.073,4.966,4.966,0,0,1,1.027,1.722,6.772,6.772,0,0,1,.37,2.32,9.272,9.272,0,0,1-.526,3.14A8.446,8.446,0,0,1,79.2-2.2,6.838,6.838,0,0,1,77.038-.455,5.768,5.768,0,0,1,74.367.182ZM82.388,0l1.6-13.234H85.26a.9.9,0,0,1,.637.208.855.855,0,0,1,.221.65l-.156,2.119a7.7,7.7,0,0,1,2.08-2.353,4.1,4.1,0,0,1,2.392-.793,2.282,2.282,0,0,1,1.956.884,4.366,4.366,0,0,1,.683,2.561,7.531,7.531,0,0,1,2.177-2.607,4.408,4.408,0,0,1,2.568-.839,2.569,2.569,0,0,1,2.431,1.287,6.086,6.086,0,0,1,.429,3.7L99.69,0h-2.5l.988-8.411a4.821,4.821,0,0,0-.091-2.184,1.131,1.131,0,0,0-1.183-.7,2.345,2.345,0,0,0-1.079.273,3.7,3.7,0,0,0-1.027.813,6.791,6.791,0,0,0-.923,1.319A10.153,10.153,0,0,0,93.126-7.1L92.281,0h-2.5l.988-8.411A9.792,9.792,0,0,0,90.857-9.7a2.59,2.59,0,0,0-.143-.9,1.045,1.045,0,0,0-.416-.526,1.365,1.365,0,0,0-.735-.175,2.346,2.346,0,0,0-1.15.306,3.793,3.793,0,0,0-1.04.877,7.368,7.368,0,0,0-.91,1.384,12.378,12.378,0,0,0-.76,1.84L84.87,0Zm25.194-1.794a2.915,2.915,0,0,0,1.658-.5,4.367,4.367,0,0,0,1.274-1.346,6.961,6.961,0,0,0,.813-1.95,9.2,9.2,0,0,0,.286-2.314,4.3,4.3,0,0,0-.676-2.652,2.349,2.349,0,0,0-1.976-.871,2.906,2.906,0,0,0-1.664.5,4.425,4.425,0,0,0-1.268,1.339,6.865,6.865,0,0,0-.812,1.944,9.2,9.2,0,0,0-.286,2.314,4.337,4.337,0,0,0,.676,2.645A2.328,2.328,0,0,0,107.581-1.794ZM107.347.182a5.225,5.225,0,0,1-1.989-.37,4.376,4.376,0,0,1-1.566-1.073,4.966,4.966,0,0,1-1.027-1.722,6.814,6.814,0,0,1-.371-2.333,9.311,9.311,0,0,1,.527-3.152,8.361,8.361,0,0,1,1.443-2.574,6.8,6.8,0,0,1,2.158-1.729,5.816,5.816,0,0,1,2.672-.63,5.226,5.226,0,0,1,1.989.37,4.376,4.376,0,0,1,1.567,1.073,4.966,4.966,0,0,1,1.027,1.722,6.772,6.772,0,0,1,.37,2.32,9.272,9.272,0,0,1-.526,3.14A8.446,8.446,0,0,1,112.177-2.2a6.838,6.838,0,0,1-2.158,1.742A5.768,5.768,0,0,1,107.347.182ZM118.9-9.646a10.887,10.887,0,0,1,1.118-1.866,5.585,5.585,0,0,1,1.248-1.235,3.119,3.119,0,0,1,1.345-.546,2.524,2.524,0,0,1,1.4.214l-.455,2.444a2.62,2.62,0,0,0-2.938.455,8.443,8.443,0,0,0-2.041,4.186L117.851,0h-2.483l1.6-13.234h1.274a.9.9,0,0,1,.637.208.855.855,0,0,1,.221.65Zm8.45,0a10.887,10.887,0,0,1,1.118-1.866,5.585,5.585,0,0,1,1.248-1.235,3.119,3.119,0,0,1,1.345-.546,2.525,2.525,0,0,1,1.4.214l-.455,2.444a2.62,2.62,0,0,0-2.938.455,8.443,8.443,0,0,0-2.041,4.186L126.3,0h-2.483l1.6-13.234h1.274a.9.9,0,0,1,.637.208.855.855,0,0,1,.221.65Zm9.685,7.852a2.915,2.915,0,0,0,1.658-.5,4.367,4.367,0,0,0,1.274-1.346,6.961,6.961,0,0,0,.813-1.95,9.2,9.2,0,0,0,.286-2.314,4.3,4.3,0,0,0-.676-2.652,2.349,2.349,0,0,0-1.976-.871,2.906,2.906,0,0,0-1.664.5,4.425,4.425,0,0,0-1.268,1.339,6.865,6.865,0,0,0-.812,1.944,9.2,9.2,0,0,0-.286,2.314,4.337,4.337,0,0,0,.676,2.645A2.328,2.328,0,0,0,137.039-1.794ZM136.805.182a5.226,5.226,0,0,1-1.989-.37,4.376,4.376,0,0,1-1.566-1.073,4.966,4.966,0,0,1-1.027-1.722,6.814,6.814,0,0,1-.37-2.333,9.311,9.311,0,0,1,.527-3.152,8.361,8.361,0,0,1,1.443-2.574,6.8,6.8,0,0,1,2.158-1.729,5.816,5.816,0,0,1,2.671-.63,5.226,5.226,0,0,1,1.989.37,4.376,4.376,0,0,1,1.566,1.073,4.966,4.966,0,0,1,1.027,1.722,6.772,6.772,0,0,1,.37,2.32,9.272,9.272,0,0,1-.526,3.14A8.446,8.446,0,0,1,141.635-2.2a6.838,6.838,0,0,1-2.158,1.742A5.768,5.768,0,0,1,136.805.182Zm26.3-13.39L157.579,0h-1.937q-.351,0-.4-.481l-1.521-8.606q-.039-.221-.059-.436t-.046-.435q-.065.221-.149.448t-.176.448l-3.64,8.58q-.2.481-.572.481h-1.859l-2.3-13.208h1.9a.687.687,0,0,1,.449.143.587.587,0,0,1,.214.364l1.105,8.112q.039.494.058.949t.033.91q.169-.455.351-.91t.364-.949l3.432-8.164a.719.719,0,0,1,.273-.357.732.732,0,0,1,.429-.137h1.066a.635.635,0,0,1,.423.137.53.53,0,0,1,.188.357l1.391,8.164q.065.481.124.949t.1.923q.13-.455.273-.917t.312-.955l3.146-8.112a.755.755,0,0,1,.273-.364.729.729,0,0,1,.442-.143Z" transform="translate(683 407.846)" fill="#fff"/>
    </g>
  </g>
</svg>
